<svg width="392" height="240" viewBox="0 0 392 240" fill="none" xmlns="http://www.w3.org/2000/svg">
<path d="M85.1424 182.459H28.9484V179.048C34.6246 179.333 46.6581 178.025 49.3826 170.522V147.502C38.3141 130.45 12.6011 152.106 28.9484 170.522C25.5427 155.175 49.3826 155.175 46.8283 170.522C43.4226 174.785 35.1382 181.97 23.8399 173.08C11.9199 163.701 20.4342 131.302 43.4226 136.418C50.1941 137.925 53.5951 138.9 55.1895 139.531C54.0955 133.255 48.3742 124.454 32.3541 132.155C15.3256 140.34 21.2856 131.018 26.3941 125.334C20.4342 126.471 7.83311 126.016 5.10855 115.103C1.70285 101.461 12.7714 127.892 40.8684 120.218C40.8684 120.218 35.7598 110.839 38.3141 90.3768C28.6646 83.2717 10.8982 75.3708 17.0285 100.608C20.4342 96.0609 30.5707 93.8223 29.7998 102.313C28.9484 111.692 20.7747 111.181 15.3256 105.724C9.87652 100.267 9.64947 93.2188 10.2171 90.3768L0 94.6399C1.98666 85.8296 11.2388 70.4257 32.3541 79.2929L36.6112 81.8507C37.1788 75.8824 39.8466 63.0932 45.9769 59.6828C45.9769 59.6828 49.6664 65.6511 47.6797 70.7667L39.1655 82.7033C39.4493 85.2611 40.3575 90.3768 41.7198 90.3768C43.4226 90.3768 44.5784 77.2067 47.6797 73.3246C50.3566 69.9739 52.8581 68.2034 54.3574 66.771C53.3562 66.6644 52.2605 66.3235 51.0854 65.6511C49.9502 64.7985 48.0204 62.0701 49.3826 57.9776V0L188.165 149.207V86.1138H200.085V182.459L60.4511 39.2201V63.9459C59.6223 65.1908 57.5531 66.981 54.6411 66.7952C52.6217 70.1991 49.872 75.7649 51.0854 77.5876C52.7883 80.1455 63.8568 61.388 65.5596 61.388C67.2625 61.388 68.9653 73.3246 56.194 81.8507C56.194 81.8507 56.4778 85.8295 63.0054 83.5559C63.0054 88.1032 59.9402 96.6861 47.6797 94.6399C47.6797 94.6399 39.7331 107.429 43.4226 115.103L45.9769 117.66C45.9769 111.408 49.042 98.2208 61.3025 95.4925C76.6282 92.082 91.1024 94.6399 101.319 117.66C109.493 136.077 87.4128 115.103 74.9253 100.608C80.0338 107.713 85.1424 117.66 80.8853 122.776C80.8853 122.776 69.8149 131.582 65.5596 120.218C63.0054 113.397 75.851 109.987 78.331 117.66C78.331 117.66 72.371 92.9346 63.0054 100.608C57.3292 102.029 46.6581 108.623 49.3826 123.629C49.3826 123.629 59.5997 139.544 63.0054 138.123C66.1273 133.007 75.4362 124.822 87.6967 133.007C99.9572 141.192 87.6967 139.828 80.0339 138.123C81.7367 142.67 83.4395 151.765 76.6282 151.765C69.8168 151.765 73.7901 144.376 76.6282 140.681C74.0739 138.976 67.9436 136.759 63.8568 141.533V170.522C64.4244 173.364 69.4762 179.048 85.1424 179.048V182.459Z" fill="url(#paint0_linear_4_23)"/>
<path d="M61.3025 132.155V104.019C55.3426 105.724 47.6797 110.328 54.4911 121.923C61.3025 133.519 61.0187 133.576 61.3025 132.155Z" fill="url(#paint1_linear_4_23)"/>
<path d="M188.165 29.8414V77.5876C188.165 71.4488 200.085 61.388 201.787 57.9776V17.0522C201.787 8.18507 213.14 7.6735 218.816 8.52611V3.41045H166.028V7.6735C190.719 3.41045 186.811 28.1362 184.759 17.0522C183.117 8.18507 165.911 9.94713 157.513 11.9366C151.553 13.6418 153.597 21.1448 161.771 17.0522C171.988 11.9366 185.61 19.6101 177.948 17.0522C171.817 15.006 164.609 20.7469 161.771 23.8731C157.513 35.8097 172.606 43.7044 176.245 35.8097C181.353 24.7257 170.569 25.0099 166.028 28.1362C172.158 13.8123 183.34 23.3047 188.165 29.8414Z" fill="url(#paint2_linear_4_23)"/>
<path d="M223.924 54.5671C210.302 52.0093 181.353 77.5876 190.719 83.5559C196.798 87.4298 202.32 80.2587 206.772 72.472C207.216 81.9952 209.013 85.9626 214.559 89.5242C223.357 92.082 237.547 89.5242 232.439 80.1455C226.559 69.3504 217.681 75.5982 214.559 81.8507C212.005 77.0192 209.791 66.1627 221.37 61.388C232.95 56.6134 243.223 67.3563 246.913 73.3246L246.062 87.819C240.102 91.2294 229.884 121.923 229.884 121.923C227.16 117.149 233.29 104.019 235.844 98.0503C238.399 92.082 237.221 90.7753 235.844 86.1138C225.627 107.901 225.627 104.871 212.856 94.6399C205.942 89.1006 215.694 115.387 217.113 120.218C235.281 174.785 283.524 191.838 336.312 185.869C377.282 181.237 377.748 157.449 372.924 139.828C370.937 151.196 362.196 173.08 343.124 169.67C324.052 166.259 327.798 151.765 332.055 144.944C331.204 151.481 332.226 163.019 343.124 156.881C354.022 150.742 345.394 141.818 339.718 138.123C314.175 136.418 327.798 164.554 329.501 171.375C330.669 176.054 322.406 161.996 321.838 156.881C319 146.081 312.302 127.892 308.215 141.533C304.129 155.175 320.703 169.954 329.501 175.638C325.812 176.206 314.346 176.661 297.998 173.933C281.651 171.204 259.4 153.47 250.319 144.944C250.319 144.944 238.399 129.597 240.102 121.923C241.727 114.599 250.319 110.271 255.427 109.134C289.484 109.134 277.564 140.681 266.496 143.239C272.52 138.407 270.753 126.186 263.09 126.186C245.213 126.186 249.467 143.239 257.13 146.649C269.893 152.329 286.078 139.828 283.524 121.923C279.95 96.8669 252.021 101.461 240.102 106.576C249.637 88.16 253.724 93.7873 264.793 100.608C280.97 106.576 275.01 89.5242 275.01 89.5242C290.653 99.7555 302.691 82.0688 297.147 79.2929C293.741 77.5876 268.766 84.6927 255.427 84.4085C267.347 80.9981 249.467 37.5149 275.01 40.9253C304.148 44.8158 280.97 69.67 284.376 61.388C287.1 54.7625 282.673 52.0093 276.713 52.8619C263.761 54.7147 270.076 68.5838 275.01 69.9141C297.147 75.8824 293.741 49.7357 286.078 39.2201C301.745 56.9544 304.81 56.2724 305.661 52.8619C301.574 30.353 275.01 35.5255 262.239 40.9253C264.225 36.6623 266.836 27.7951 261.387 26.431C255.938 25.0668 252.305 17.3364 251.17 13.6418V28.1362C262.239 28.1362 255.103 68.2089 256.279 48.5989C257.219 32.9108 246.454 26.1468 240.953 24.7257C244.642 28.4204 250.829 35.8097 246.062 35.8097C241.294 35.8097 233.29 23.3047 229.884 17.0522C221.711 27.9657 233.29 37.5149 240.102 40.9253C234.425 40.9253 223.897 43.2115 229.884 44.3358C243.507 46.8936 236.128 52.2935 235.844 54.5671C256.96 49.1104 256.562 68.7773 253.724 79.2929C245.551 55.4197 234.142 56.4855 223.924 54.5671Z" fill="url(#paint3_linear_4_23)"/>
<path d="M372.924 52.8619C370.369 10.2313 295.16 9.37873 262.239 23.8731L256.279 13.6418C299.701 -5.96828 338.867 2.55783 372.924 8.52611V52.8619Z" fill="url(#paint4_linear_4_23)"/>
<path d="M386.938 11.8182L384.159 5.54545H385.284L387.227 10.1477L389.17 5.54545H390.295L387.517 11.8182H386.938ZM383.955 11.8182V5.54545H385.045V11.8182H383.955ZM389.409 11.8182V5.54545H390.5V11.8182H389.409ZM379.864 11.8182V6.09091H380.955V11.8182H379.864ZM377.955 6.5V5.54545H382.864V6.5H377.955Z" fill="url(#paint5_linear_4_23)"/>
<path d="M59.12 232.288L46.704 214.592C46.384 214.144 46.064 213.717 45.744 213.312C45.4453 212.885 45.1467 212.48 44.848 212.096V228.448C44.848 228.96 44.9653 229.365 45.2 229.664C45.4347 229.963 45.712 230.187 46.032 230.336C46.3733 230.464 46.7253 230.549 47.088 230.592C47.4507 230.635 47.76 230.656 48.016 230.656V232C47.8027 232 47.5147 231.989 47.152 231.968C46.7893 231.925 46.4053 231.883 46 231.84C45.5947 231.797 45.2107 231.765 44.848 231.744C44.4853 231.701 44.1973 231.68 43.984 231.68C43.7707 231.68 43.4827 231.701 43.12 231.744C42.7573 231.765 42.3733 231.797 41.968 231.84C41.5627 231.883 41.1787 231.925 40.816 231.968C40.4533 231.989 40.1653 232 39.952 232V230.656C40.2293 230.656 40.5493 230.635 40.912 230.592C41.296 230.549 41.648 230.464 41.968 230.336C42.288 230.187 42.5547 229.963 42.768 229.664C43.0027 229.365 43.12 228.96 43.12 228.448V210.112C42.3733 209.365 41.6053 208.779 40.816 208.352C40.0267 207.904 39.1947 207.68 38.32 207.68C38.32 207.189 38.512 206.752 38.896 206.368C39.28 205.963 39.8773 205.76 40.688 205.76C41.4133 205.76 42.032 205.941 42.544 206.304C43.0773 206.645 43.344 207.136 43.344 207.776C43.728 207.776 44.1013 207.819 44.464 207.904C44.8267 207.968 45.2427 208.181 45.712 208.544C46.1813 208.885 46.7253 209.429 47.344 210.176C47.984 210.923 48.7627 211.957 49.68 213.28L58.512 226.08V209.152C58.512 208.491 58.256 207.989 57.744 207.648C57.2533 207.285 56.56 207.104 55.664 207.104C55.664 206.741 55.792 206.432 56.048 206.176C56.304 205.899 56.7413 205.76 57.36 205.76C58.1707 205.76 58.8427 206.091 59.376 206.752C59.9093 206.091 60.5813 205.76 61.392 205.76C62.0107 205.76 62.448 205.899 62.704 206.176C62.96 206.432 63.088 206.741 63.088 207.104C62.2133 207.104 61.52 207.285 61.008 207.648C60.496 207.989 60.24 208.491 60.24 209.152V232L59.12 232.288ZM66.1523 212.288C66.1523 211.648 66.3763 211.115 66.8243 210.688C67.2723 210.24 67.8056 210.016 68.4243 210.016C69.0429 210.016 69.5656 210.24 69.9923 210.688C70.4403 211.115 70.6643 211.648 70.6643 212.288C70.6643 212.928 70.4403 213.472 69.9923 213.92C69.5656 214.347 69.0429 214.56 68.4243 214.56C67.8056 214.56 67.2723 214.347 66.8243 213.92C66.3763 213.472 66.1523 212.928 66.1523 212.288ZM69.7683 228.832C69.7683 229.259 69.8323 229.611 69.9603 229.888C70.1096 230.165 70.2803 230.389 70.4723 230.56C70.6856 230.731 70.9203 230.859 71.1763 230.944C71.4536 231.008 71.7203 231.04 71.9763 231.04V232C71.7203 232 71.4323 231.989 71.1123 231.968C70.8136 231.925 70.4936 231.883 70.1523 231.84C69.8109 231.797 69.4803 231.765 69.1603 231.744C68.8616 231.701 68.5843 231.68 68.3283 231.68C68.0723 231.68 67.7843 231.701 67.4643 231.744C67.1656 231.765 66.8456 231.797 66.5043 231.84C66.1629 231.883 65.8323 231.925 65.5123 231.968C65.2136 231.989 64.9363 232 64.6803 232V231.04C65.2563 231.04 65.7683 230.88 66.2163 230.56C66.6643 230.24 66.8883 229.664 66.8883 228.832V223.328C66.8883 222.539 66.8669 221.888 66.8243 221.376C66.8029 220.843 66.7176 220.437 66.5683 220.16C66.4189 219.861 66.2056 219.659 65.9283 219.552C65.6509 219.424 65.2669 219.36 64.7763 219.36V218.4C65.3096 218.4 65.7576 218.368 66.1203 218.304C66.5043 218.24 66.8456 218.144 67.1443 218.016C67.4429 217.888 67.7203 217.739 67.9763 217.568C68.2323 217.397 68.5096 217.216 68.8083 217.024H69.7683V228.832ZM81.1028 232.448C79.9508 232.448 78.9374 232.256 78.0628 231.872C77.1881 231.488 76.4521 230.955 75.8548 230.272C75.2574 229.568 74.8094 228.736 74.5108 227.776C74.2121 226.816 74.0628 225.76 74.0628 224.608C74.0628 223.264 74.2654 222.123 74.6708 221.184C75.0974 220.224 75.6414 219.435 76.3028 218.816C76.9854 218.197 77.7534 217.749 78.6068 217.472C79.4814 217.173 80.3668 217.024 81.2628 217.024C82.2228 217.024 83.0761 217.173 83.8228 217.472C84.5694 217.749 85.2628 218.325 85.9028 219.2C86.0308 218.731 86.2334 218.379 86.5108 218.144C86.7881 217.888 87.1081 217.707 87.4708 217.6C87.8334 217.472 88.2174 217.397 88.6228 217.376C89.0281 217.355 89.4228 217.344 89.8068 217.344V218.304C89.5294 218.304 89.2948 218.368 89.1028 218.496C88.9321 218.603 88.7934 218.912 88.6868 219.424C88.6014 219.915 88.5374 220.661 88.4948 221.664C88.4734 222.645 88.4628 224.011 88.4628 225.76V233.056C88.4628 235.488 87.8548 237.248 86.6388 238.336C85.4441 239.445 83.5561 240 80.9748 240C79.3961 240 78.2228 239.829 77.4548 239.488C76.7081 239.147 76.3348 238.72 76.3348 238.208C75.7801 238.208 75.3854 238.016 75.1508 237.632C74.9161 237.269 74.7988 236.896 74.7988 236.512C74.7988 236.149 74.8841 235.829 75.0548 235.552C75.2254 235.296 75.4388 235.083 75.6948 234.912C75.9508 234.741 76.2174 234.613 76.4948 234.528C76.7934 234.443 77.0601 234.4 77.2948 234.4C77.2948 234.976 77.3588 235.509 77.4868 236C77.6361 236.512 77.8708 236.949 78.1908 237.312C78.5108 237.696 78.9161 237.995 79.4068 238.208C79.9188 238.443 80.5374 238.56 81.2628 238.56C81.9028 238.56 82.4894 238.464 83.0228 238.272C83.5561 238.08 84.0041 237.76 84.3668 237.312C84.7508 236.864 85.0494 236.277 85.2628 235.552C85.4761 234.827 85.5828 233.931 85.5828 232.864V230.784C84.8574 231.488 84.1108 231.936 83.3428 232.128C82.5748 232.341 81.8281 232.448 81.1028 232.448ZM81.5828 230.976C82.3081 230.976 82.9481 230.816 83.5028 230.496C84.0574 230.155 84.5054 229.696 84.8468 229.12C85.2094 228.544 85.4761 227.883 85.6468 227.136C85.8388 226.368 85.9348 225.547 85.9348 224.672C85.9348 223.84 85.8494 223.061 85.6788 222.336C85.5081 221.589 85.2414 220.939 84.8788 220.384C84.5161 219.808 84.0574 219.36 83.5028 219.04C82.9694 218.72 82.3188 218.56 81.5508 218.56C80.7188 218.56 80.0148 218.72 79.4388 219.04C78.8628 219.339 78.4041 219.765 78.0628 220.32C77.7214 220.853 77.4761 221.493 77.3268 222.24C77.1774 222.965 77.1028 223.755 77.1028 224.608C77.1028 225.44 77.1668 226.24 77.2948 227.008C77.4441 227.776 77.6894 228.459 78.0308 229.056C78.3934 229.632 78.8521 230.101 79.4068 230.464C79.9828 230.805 80.7081 230.976 81.5828 230.976ZM99.954 231.008C100.274 231.008 100.594 230.976 100.914 230.912C101.234 230.827 101.533 230.688 101.81 230.496C102.109 230.283 102.375 229.995 102.61 229.632C102.866 229.248 103.09 228.747 103.282 228.128C103.773 228.128 104.178 228.245 104.498 228.48C104.818 228.715 104.978 229.077 104.978 229.568C104.978 230.016 104.829 230.421 104.53 230.784C104.253 231.147 103.869 231.456 103.378 231.712C102.909 231.947 102.354 232.128 101.714 232.256C101.095 232.384 100.445 232.448 99.762 232.448C98.5887 232.448 97.554 232.267 96.658 231.904C95.762 231.52 95.0153 230.997 94.418 230.336C93.8207 229.653 93.362 228.832 93.042 227.872C92.7433 226.912 92.594 225.856 92.594 224.704C92.594 222.315 93.2233 220.437 94.482 219.072C95.7407 217.707 97.5327 217.024 99.858 217.024C100.135 217.024 100.413 217.035 100.69 217.056C100.967 217.077 101.223 217.131 101.458 217.216C101.693 217.28 101.885 217.387 102.034 217.536C102.183 217.664 102.258 217.835 102.258 218.048C102.578 218.048 102.898 218.112 103.218 218.24C103.559 218.368 103.869 218.56 104.146 218.816C104.445 219.072 104.679 219.403 104.85 219.808C105.042 220.192 105.138 220.661 105.138 221.216C105.138 222.005 104.946 222.656 104.562 223.168C104.178 223.68 103.687 224.096 103.09 224.416C102.514 224.715 101.874 224.928 101.17 225.056C100.487 225.163 99.8367 225.216 99.218 225.216C98.514 225.216 97.8527 225.163 97.234 225.056C96.6367 224.949 96.1247 224.821 95.698 224.672V224.8C95.698 225.696 95.7727 226.528 95.922 227.296C96.0713 228.064 96.306 228.725 96.626 229.28C96.9673 229.813 97.4047 230.24 97.938 230.56C98.4927 230.859 99.1647 231.008 99.954 231.008ZM99.602 218.528C98.45 218.528 97.5647 218.944 96.946 219.776C96.3273 220.608 95.9327 221.76 95.762 223.232C96.1247 223.467 96.6153 223.627 97.234 223.712C97.874 223.776 98.482 223.808 99.058 223.808C100.21 223.808 101.01 223.627 101.458 223.264C101.927 222.901 102.162 222.272 102.162 221.376C102.162 220.309 101.917 219.573 101.426 219.168C100.935 218.741 100.327 218.528 99.602 218.528ZM112.389 228.832C112.389 229.259 112.453 229.611 112.581 229.888C112.73 230.165 112.901 230.389 113.093 230.56C113.306 230.731 113.541 230.859 113.797 230.944C114.074 231.008 114.341 231.04 114.597 231.04V232C114.341 232 114.053 231.989 113.733 231.968C113.434 231.925 113.114 231.883 112.773 231.84C112.431 231.797 112.101 231.765 111.781 231.744C111.482 231.701 111.205 231.68 110.949 231.68C110.693 231.68 110.405 231.701 110.085 231.744C109.786 231.765 109.466 231.797 109.125 231.84C108.783 231.883 108.453 231.925 108.133 231.968C107.834 231.989 107.557 232 107.301 232V231.04C107.877 231.04 108.389 230.88 108.837 230.56C109.285 230.24 109.509 229.664 109.509 228.832V212.256C109.509 211.467 109.487 210.816 109.445 210.304C109.423 209.771 109.338 209.365 109.189 209.088C109.039 208.789 108.826 208.587 108.549 208.48C108.271 208.352 107.887 208.288 107.397 208.288V207.488C107.93 207.488 108.389 207.456 108.773 207.392C109.178 207.328 109.541 207.232 109.861 207.104C110.181 206.976 110.469 206.827 110.725 206.656C111.002 206.485 111.29 206.304 111.589 206.112H112.389V228.832ZM121.358 228.832C121.358 229.259 121.422 229.611 121.55 229.888C121.699 230.165 121.87 230.389 122.062 230.56C122.275 230.731 122.51 230.859 122.766 230.944C123.043 231.008 123.31 231.04 123.566 231.04V232C123.31 232 123.022 231.989 122.702 231.968C122.403 231.925 122.083 231.883 121.742 231.84C121.4 231.797 121.07 231.765 120.75 231.744C120.451 231.701 120.174 231.68 119.918 231.68C119.662 231.68 119.374 231.701 119.054 231.744C118.755 231.765 118.435 231.797 118.094 231.84C117.752 231.883 117.422 231.925 117.102 231.968C116.803 231.989 116.526 232 116.27 232V231.04C116.846 231.04 117.358 230.88 117.806 230.56C118.254 230.24 118.478 229.664 118.478 228.832V212.256C118.478 211.467 118.456 210.816 118.414 210.304C118.392 209.771 118.307 209.365 118.158 209.088C118.008 208.789 117.795 208.587 117.518 208.48C117.24 208.352 116.856 208.288 116.366 208.288V207.488C116.899 207.488 117.358 207.456 117.742 207.392C118.147 207.328 118.51 207.232 118.83 207.104C119.15 206.976 119.438 206.827 119.694 206.656C119.971 206.485 120.259 206.304 120.558 206.112H121.358V228.832ZM137.974 228.832C137.974 229.259 138.038 229.611 138.166 229.888C138.316 230.165 138.486 230.389 138.678 230.56C138.892 230.731 139.126 230.859 139.382 230.944C139.66 231.008 139.926 231.04 140.182 231.04V232C139.692 232 139.265 231.957 138.902 231.872C138.561 231.787 138.145 231.744 137.654 231.744C137.164 231.744 136.737 231.755 136.374 231.776C136.012 231.797 135.585 231.872 135.094 232V230.304C134.604 230.859 134.017 231.36 133.334 231.808C132.652 232.235 131.82 232.448 130.838 232.448C130.049 232.448 129.324 232.341 128.662 232.128C128.022 231.915 127.468 231.605 126.998 231.2C126.55 230.795 126.198 230.315 125.942 229.76C125.686 229.184 125.558 228.544 125.558 227.84C125.558 227.157 125.686 226.549 125.942 226.016C126.22 225.461 126.604 225.003 127.094 224.64C127.585 224.256 128.161 223.968 128.822 223.776C129.484 223.563 130.22 223.456 131.03 223.456C131.948 223.456 132.726 223.552 133.366 223.744C134.028 223.915 134.604 224.117 135.094 224.352V223.168C135.094 222.613 135.052 222.059 134.966 221.504C134.902 220.949 134.764 220.448 134.55 220C134.337 219.552 134.028 219.189 133.622 218.912C133.217 218.635 132.694 218.496 132.054 218.496C131.777 218.496 131.468 218.528 131.126 218.592C130.806 218.656 130.508 218.773 130.23 218.944C129.953 219.093 129.718 219.307 129.526 219.584C129.334 219.84 129.238 220.171 129.238 220.576C129.238 220.789 129.27 221.035 129.334 221.312C129.014 221.483 128.662 221.568 128.278 221.568C127.681 221.568 127.244 221.408 126.966 221.088C126.689 220.747 126.55 220.363 126.55 219.936C126.55 219.509 126.689 219.136 126.966 218.816C127.265 218.475 127.681 218.304 128.214 218.304C128.214 218.069 128.321 217.867 128.534 217.696C128.748 217.525 129.025 217.397 129.366 217.312C129.729 217.205 130.124 217.131 130.55 217.088C130.977 217.045 131.414 217.024 131.862 217.024C132.822 217.024 133.676 217.141 134.422 217.376C135.19 217.589 135.83 217.973 136.342 218.528C136.876 219.061 137.281 219.787 137.558 220.704C137.836 221.6 137.974 222.741 137.974 224.128V228.832ZM131.734 230.976C132.481 230.976 133.132 230.763 133.686 230.336C134.241 229.888 134.71 229.355 135.094 228.736V225.536C134.604 225.301 134.06 225.109 133.462 224.96C132.865 224.789 132.268 224.704 131.67 224.704C130.817 224.704 130.081 224.96 129.462 225.472C128.865 225.984 128.566 226.709 128.566 227.648C128.566 228.629 128.854 229.429 129.43 230.048C130.006 230.667 130.774 230.976 131.734 230.976ZM158.063 228.448C158.063 228.96 158.159 229.365 158.351 229.664C158.564 229.963 158.81 230.187 159.087 230.336C159.386 230.464 159.695 230.549 160.015 230.592C160.356 230.635 160.655 230.656 160.911 230.656V232C160.655 232 160.335 231.989 159.951 231.968C159.567 231.925 159.172 231.883 158.767 231.84C158.362 231.797 157.967 231.765 157.583 231.744C157.199 231.701 156.879 231.68 156.623 231.68C156.367 231.68 156.047 231.701 155.663 231.744C155.279 231.765 154.884 231.797 154.479 231.84C154.074 231.883 153.679 231.925 153.295 231.968C152.911 231.989 152.591 232 152.335 232V230.656C152.612 230.656 152.922 230.635 153.263 230.592C153.604 230.549 153.914 230.464 154.191 230.336C154.468 230.187 154.703 229.963 154.895 229.664C155.087 229.365 155.183 228.96 155.183 228.448V215.776C155.183 214.987 155.162 214.336 155.119 213.824C155.098 213.291 155.012 212.885 154.863 212.608C154.714 212.309 154.5 212.107 154.223 212C153.946 211.872 153.562 211.808 153.071 211.808V210.688C153.604 210.688 154.063 210.656 154.447 210.592C154.852 210.528 155.215 210.432 155.535 210.304C155.855 210.176 156.143 210.027 156.399 209.856C156.676 209.685 156.964 209.504 157.263 209.312H158.063V228.448ZM158.639 219.456C158.895 219.627 159.268 219.829 159.759 220.064C160.25 220.299 160.9 220.416 161.711 220.416C162.714 220.416 163.503 220.213 164.079 219.808C164.655 219.381 165.082 218.869 165.359 218.272C165.658 217.675 165.839 217.045 165.903 216.384C165.988 215.723 166.031 215.157 166.031 214.688C166.031 213.92 165.956 213.099 165.807 212.224C165.658 211.349 165.316 210.549 164.783 209.824C164.25 209.099 163.46 208.501 162.415 208.032C161.391 207.541 160.004 207.296 158.255 207.296C156.762 207.296 155.492 207.488 154.447 207.872C153.423 208.256 152.591 208.811 151.951 209.536C151.311 210.261 150.842 211.168 150.543 212.256C150.266 213.323 150.127 214.539 150.127 215.904C149.85 215.904 149.54 215.851 149.199 215.744C148.879 215.637 148.58 215.477 148.303 215.264C148.026 215.051 147.791 214.784 147.599 214.464C147.407 214.144 147.311 213.771 147.311 213.344C147.311 212.853 147.45 212.395 147.727 211.968C148.004 211.52 148.41 211.296 148.943 211.296C148.772 211.168 148.655 210.955 148.591 210.656C148.548 210.357 148.527 210.101 148.527 209.888C148.527 209.163 148.815 208.544 149.391 208.032C149.967 207.499 150.703 207.072 151.599 206.752C152.516 206.411 153.53 206.165 154.639 206.016C155.77 205.867 156.89 205.792 157.999 205.792C160.111 205.792 161.882 206.037 163.311 206.528C164.74 207.019 165.892 207.669 166.767 208.48C167.642 209.269 168.271 210.187 168.655 211.232C169.039 212.256 169.231 213.312 169.231 214.4C169.231 215.296 169.103 216.203 168.847 217.12C168.612 218.016 168.228 218.827 167.695 219.552C167.162 220.256 166.468 220.832 165.615 221.28C164.783 221.728 163.78 221.952 162.607 221.952C161.86 221.952 161.231 221.867 160.719 221.696C160.228 221.525 159.834 221.312 159.535 221.056C159.236 220.8 159.012 220.544 158.863 220.288C158.735 220.011 158.66 219.776 158.639 219.584V219.456ZM172.652 212.288C172.652 211.648 172.876 211.115 173.324 210.688C173.772 210.24 174.306 210.016 174.924 210.016C175.543 210.016 176.066 210.24 176.492 210.688C176.94 211.115 177.164 211.648 177.164 212.288C177.164 212.928 176.94 213.472 176.492 213.92C176.066 214.347 175.543 214.56 174.924 214.56C174.306 214.56 173.772 214.347 173.324 213.92C172.876 213.472 172.652 212.928 172.652 212.288ZM176.268 228.832C176.268 229.259 176.332 229.611 176.46 229.888C176.61 230.165 176.78 230.389 176.972 230.56C177.186 230.731 177.42 230.859 177.676 230.944C177.954 231.008 178.22 231.04 178.476 231.04V232C178.22 232 177.932 231.989 177.612 231.968C177.314 231.925 176.994 231.883 176.652 231.84C176.311 231.797 175.98 231.765 175.66 231.744C175.362 231.701 175.084 231.68 174.828 231.68C174.572 231.68 174.284 231.701 173.964 231.744C173.666 231.765 173.346 231.797 173.004 231.84C172.663 231.883 172.332 231.925 172.012 231.968C171.714 231.989 171.436 232 171.18 232V231.04C171.756 231.04 172.268 230.88 172.716 230.56C173.164 230.24 173.388 229.664 173.388 228.832V223.328C173.388 222.539 173.367 221.888 173.324 221.376C173.303 220.843 173.218 220.437 173.068 220.16C172.919 219.861 172.706 219.659 172.428 219.552C172.151 219.424 171.767 219.36 171.276 219.36V218.4C171.81 218.4 172.258 218.368 172.62 218.304C173.004 218.24 173.346 218.144 173.644 218.016C173.943 217.888 174.22 217.739 174.476 217.568C174.732 217.397 175.01 217.216 175.308 217.024H176.268V228.832ZM195.059 228.832C195.059 229.259 195.123 229.611 195.251 229.888C195.4 230.165 195.571 230.389 195.763 230.56C195.976 230.731 196.211 230.859 196.467 230.944C196.744 231.008 197.011 231.04 197.267 231.04V232C197.011 232 196.723 231.989 196.403 231.968C196.104 231.925 195.784 231.883 195.443 231.84C195.101 231.797 194.771 231.765 194.451 231.744C194.152 231.701 193.875 231.68 193.619 231.68C193.363 231.68 193.075 231.701 192.755 231.744C192.456 231.765 192.136 231.797 191.795 231.84C191.453 231.883 191.123 231.925 190.803 231.968C190.504 231.989 190.227 232 189.971 232V231.04C190.547 231.04 191.059 230.88 191.507 230.56C191.955 230.24 192.179 229.664 192.179 228.832V223.872C192.179 222.827 192.104 221.963 191.955 221.28C191.827 220.597 191.635 220.053 191.379 219.648C191.123 219.243 190.813 218.955 190.451 218.784C190.109 218.613 189.736 218.528 189.331 218.528C188.84 218.528 188.36 218.635 187.891 218.848C187.421 219.061 186.995 219.403 186.611 219.872C186.227 220.32 185.917 220.907 185.683 221.632C185.448 222.357 185.331 223.243 185.331 224.288V228.832C185.331 229.259 185.395 229.611 185.523 229.888C185.672 230.165 185.843 230.389 186.035 230.56C186.248 230.731 186.483 230.859 186.739 230.944C187.016 231.008 187.283 231.04 187.539 231.04V232C187.283 232 186.995 231.989 186.675 231.968C186.376 231.925 186.056 231.883 185.715 231.84C185.373 231.797 185.043 231.765 184.723 231.744C184.424 231.701 184.147 231.68 183.891 231.68C183.635 231.68 183.347 231.701 183.027 231.744C182.728 231.765 182.408 231.797 182.067 231.84C181.725 231.883 181.395 231.925 181.075 231.968C180.776 231.989 180.499 232 180.243 232V231.04C180.819 231.04 181.331 230.88 181.779 230.56C182.227 230.24 182.451 229.664 182.451 228.832V223.488C182.451 222.699 182.429 222.048 182.387 221.536C182.365 221.003 182.28 220.597 182.131 220.32C181.981 220.021 181.768 219.819 181.491 219.712C181.213 219.584 180.829 219.52 180.339 219.52V218.72C180.872 218.72 181.331 218.688 181.715 218.624C182.12 218.56 182.483 218.464 182.803 218.336C183.123 218.208 183.411 218.059 183.667 217.888C183.944 217.717 184.232 217.536 184.531 217.344H185.331V219.584C185.565 219.221 185.811 218.891 186.067 218.592C186.323 218.272 186.632 217.995 186.995 217.76C187.379 217.525 187.816 217.344 188.307 217.216C188.819 217.088 189.427 217.024 190.131 217.024C191.091 217.024 191.944 217.195 192.691 217.536C193.437 217.877 194.013 218.56 194.419 219.584C194.589 219.285 194.824 218.987 195.123 218.688C195.421 218.368 195.773 218.091 196.179 217.856C196.584 217.6 197.043 217.397 197.555 217.248C198.067 217.099 198.632 217.024 199.251 217.024C200.083 217.024 200.84 217.173 201.523 217.472C202.205 217.771 202.792 218.251 203.283 218.912C203.773 219.552 204.147 220.405 204.403 221.472C204.68 222.517 204.819 223.797 204.819 225.312V228.48C204.819 229.696 204.861 230.677 204.947 231.424C205.053 232.149 205.181 232.704 205.331 233.088C205.501 233.493 205.693 233.76 205.907 233.888C206.141 234.037 206.376 234.112 206.611 234.112C206.909 234.112 207.176 234.048 207.411 233.92C207.645 233.813 207.848 233.675 208.019 233.504L208.179 233.632C207.944 234.187 207.603 234.592 207.155 234.848C206.728 235.125 206.259 235.264 205.747 235.264C205.128 235.264 204.605 235.093 204.179 234.752C203.773 234.411 203.571 233.952 203.571 233.376C202.824 233.376 202.333 233.003 202.099 232.256C201.885 231.509 201.779 230.411 201.779 228.96V223.936C201.779 222.144 201.565 220.8 201.139 219.904C200.712 218.987 199.987 218.528 198.963 218.528C198.664 218.528 198.291 218.603 197.843 218.752C197.395 218.88 196.957 219.136 196.531 219.52C196.125 219.904 195.773 220.448 195.475 221.152C195.197 221.835 195.059 222.731 195.059 223.84V228.832ZM217.144 217.024C218.381 217.024 219.437 217.227 220.312 217.632C221.208 218.016 221.944 218.549 222.52 219.232C223.096 219.915 223.512 220.725 223.768 221.664C224.045 222.581 224.184 223.584 224.184 224.672C224.184 226.08 223.971 227.285 223.544 228.288C223.139 229.269 222.595 230.069 221.912 230.688C221.251 231.307 220.483 231.755 219.608 232.032C218.755 232.309 217.869 232.448 216.952 232.448C216.077 232.448 215.309 232.32 214.648 232.064C214.008 231.808 213.379 231.339 212.76 230.656V236.832C212.76 237.259 212.824 237.611 212.952 237.888C213.101 238.165 213.272 238.389 213.464 238.56C213.677 238.731 213.912 238.848 214.168 238.912C214.445 238.997 214.712 239.04 214.968 239.04V240C214.712 240 214.424 239.979 214.104 239.936C213.805 239.915 213.485 239.883 213.144 239.84C212.803 239.797 212.472 239.755 212.152 239.712C211.853 239.691 211.576 239.68 211.32 239.68C211.064 239.68 210.776 239.691 210.456 239.712C210.157 239.755 209.837 239.797 209.496 239.84C209.155 239.883 208.824 239.915 208.504 239.936C208.205 239.979 207.928 240 207.672 240V239.04C208.248 239.04 208.76 238.88 209.208 238.56C209.656 238.24 209.88 237.664 209.88 236.832V223.488C209.88 222.699 209.859 222.048 209.816 221.536C209.795 221.003 209.709 220.597 209.56 220.32C209.411 220.021 209.197 219.819 208.92 219.712C208.643 219.584 208.259 219.52 207.768 219.52V218.72C208.301 218.72 208.76 218.688 209.144 218.624C209.549 218.56 209.912 218.464 210.232 218.336C210.552 218.208 210.84 218.059 211.096 217.888C211.373 217.717 211.661 217.536 211.96 217.344H212.76V218.944C213.443 218.24 214.168 217.749 214.936 217.472C215.704 217.173 216.44 217.024 217.144 217.024ZM216.984 218.496C216.237 218.496 215.587 218.667 215.032 219.008C214.499 219.328 214.051 219.776 213.688 220.352C213.347 220.928 213.08 221.6 212.888 222.368C212.717 223.136 212.632 223.947 212.632 224.8C212.632 225.632 212.717 226.421 212.888 227.168C213.059 227.893 213.325 228.544 213.688 229.12C214.051 229.675 214.509 230.112 215.064 230.432C215.619 230.752 216.291 230.912 217.08 230.912C217.827 230.912 218.456 230.763 218.968 230.464C219.501 230.144 219.928 229.717 220.248 229.184C220.568 228.629 220.792 227.989 220.92 227.264C221.069 226.517 221.144 225.707 221.144 224.832C221.144 224 221.069 223.211 220.92 222.464C220.792 221.696 220.568 221.024 220.248 220.448C219.928 219.851 219.501 219.381 218.968 219.04C218.435 218.677 217.773 218.496 216.984 218.496ZM231.451 228.832C231.451 229.259 231.515 229.611 231.643 229.888C231.793 230.165 231.963 230.389 232.155 230.56C232.369 230.731 232.603 230.859 232.859 230.944C233.137 231.008 233.403 231.04 233.659 231.04V232C233.403 232 233.115 231.989 232.795 231.968C232.497 231.925 232.177 231.883 231.835 231.84C231.494 231.797 231.163 231.765 230.843 231.744C230.545 231.701 230.267 231.68 230.011 231.68C229.755 231.68 229.467 231.701 229.147 231.744C228.849 231.765 228.529 231.797 228.187 231.84C227.846 231.883 227.515 231.925 227.195 231.968C226.897 231.989 226.619 232 226.363 232V231.04C226.939 231.04 227.451 230.88 227.899 230.56C228.347 230.24 228.571 229.664 228.571 228.832V212.256C228.571 211.467 228.55 210.816 228.507 210.304C228.486 209.771 228.401 209.365 228.251 209.088C228.102 208.789 227.889 208.587 227.611 208.48C227.334 208.352 226.95 208.288 226.459 208.288V207.488C226.993 207.488 227.451 207.456 227.835 207.392C228.241 207.328 228.603 207.232 228.923 207.104C229.243 206.976 229.531 206.827 229.787 206.656C230.065 206.485 230.353 206.304 230.651 206.112H231.451V228.832ZM243.204 231.008C243.524 231.008 243.844 230.976 244.164 230.912C244.484 230.827 244.783 230.688 245.06 230.496C245.359 230.283 245.625 229.995 245.86 229.632C246.116 229.248 246.34 228.747 246.532 228.128C247.023 228.128 247.428 228.245 247.748 228.48C248.068 228.715 248.228 229.077 248.228 229.568C248.228 230.016 248.079 230.421 247.78 230.784C247.503 231.147 247.119 231.456 246.628 231.712C246.159 231.947 245.604 232.128 244.964 232.256C244.345 232.384 243.695 232.448 243.012 232.448C241.839 232.448 240.804 232.267 239.908 231.904C239.012 231.52 238.265 230.997 237.668 230.336C237.071 229.653 236.612 228.832 236.292 227.872C235.993 226.912 235.844 225.856 235.844 224.704C235.844 222.315 236.473 220.437 237.732 219.072C238.991 217.707 240.783 217.024 243.108 217.024C243.385 217.024 243.663 217.035 243.94 217.056C244.217 217.077 244.473 217.131 244.708 217.216C244.943 217.28 245.135 217.387 245.284 217.536C245.433 217.664 245.508 217.835 245.508 218.048C245.828 218.048 246.148 218.112 246.468 218.24C246.809 218.368 247.119 218.56 247.396 218.816C247.695 219.072 247.929 219.403 248.1 219.808C248.292 220.192 248.388 220.661 248.388 221.216C248.388 222.005 248.196 222.656 247.812 223.168C247.428 223.68 246.937 224.096 246.34 224.416C245.764 224.715 245.124 224.928 244.42 225.056C243.737 225.163 243.087 225.216 242.468 225.216C241.764 225.216 241.103 225.163 240.484 225.056C239.887 224.949 239.375 224.821 238.948 224.672V224.8C238.948 225.696 239.023 226.528 239.172 227.296C239.321 228.064 239.556 228.725 239.876 229.28C240.217 229.813 240.655 230.24 241.188 230.56C241.743 230.859 242.415 231.008 243.204 231.008ZM242.852 218.528C241.7 218.528 240.815 218.944 240.196 219.776C239.577 220.608 239.183 221.76 239.012 223.232C239.375 223.467 239.865 223.627 240.484 223.712C241.124 223.776 241.732 223.808 242.308 223.808C243.46 223.808 244.26 223.627 244.708 223.264C245.177 222.901 245.412 222.272 245.412 221.376C245.412 220.309 245.167 219.573 244.676 219.168C244.185 218.741 243.577 218.528 242.852 218.528ZM271.415 205.76C271.777 205.76 272.236 205.771 272.791 205.792C273.367 205.813 273.911 205.877 274.423 205.984C274.956 206.091 275.415 206.261 275.799 206.496C276.183 206.731 276.375 207.072 276.375 207.52C276.844 207.52 277.292 207.584 277.719 207.712C278.145 207.84 278.519 208.053 278.839 208.352C279.18 208.651 279.447 209.045 279.639 209.536C279.852 210.027 279.959 210.635 279.959 211.36C279.959 212.725 279.607 213.739 278.903 214.4C278.22 215.061 277.345 215.392 276.279 215.392C276.044 215.392 275.777 215.381 275.479 215.36C275.18 215.317 274.913 215.275 274.679 215.232V215.008C275.169 214.837 275.564 214.528 275.863 214.08C276.183 213.611 276.343 212.928 276.343 212.032C276.343 210.539 275.884 209.387 274.967 208.576C274.071 207.765 272.887 207.36 271.415 207.36C270.22 207.36 269.1 207.637 268.055 208.192C267.009 208.747 266.092 209.547 265.303 210.592C264.513 211.637 263.884 212.917 263.415 214.432C262.967 215.947 262.743 217.675 262.743 219.616C262.743 221.472 262.956 223.104 263.383 224.512C263.809 225.899 264.396 227.061 265.143 228C265.889 228.939 266.775 229.653 267.799 230.144C268.844 230.613 269.975 230.848 271.191 230.848C272.257 230.848 273.143 230.677 273.847 230.336C274.551 229.973 275.105 229.493 275.511 228.896C275.937 228.277 276.236 227.563 276.407 226.752C276.577 225.92 276.684 225.035 276.727 224.096C277.004 224.096 277.313 224.139 277.655 224.224C278.017 224.309 278.348 224.459 278.647 224.672C278.945 224.885 279.201 225.173 279.415 225.536C279.628 225.877 279.735 226.315 279.735 226.848C279.735 227.147 279.692 227.456 279.607 227.776C279.543 228.096 279.415 228.384 279.223 228.64C279.031 228.896 278.775 229.109 278.455 229.28C278.156 229.429 277.783 229.504 277.335 229.504C277.335 230.059 277.143 230.528 276.759 230.912C276.375 231.275 275.873 231.573 275.255 231.808C274.636 232.021 273.943 232.181 273.175 232.288C272.428 232.395 271.681 232.448 270.935 232.448C269.313 232.448 267.809 232.213 266.423 231.744C265.036 231.253 263.831 230.496 262.807 229.472C261.783 228.448 260.983 227.125 260.407 225.504C259.831 223.861 259.543 221.888 259.543 219.584C259.543 217.216 259.841 215.168 260.439 213.44C261.057 211.691 261.9 210.251 262.967 209.12C264.055 207.989 265.313 207.147 266.743 206.592C268.193 206.037 269.751 205.76 271.415 205.76ZM287.112 228.832C287.112 229.259 287.176 229.611 287.304 229.888C287.453 230.165 287.624 230.389 287.816 230.56C288.029 230.731 288.264 230.859 288.52 230.944C288.797 231.008 289.064 231.04 289.32 231.04V232C289.064 232 288.776 231.989 288.456 231.968C288.157 231.925 287.837 231.883 287.496 231.84C287.155 231.797 286.824 231.765 286.504 231.744C286.205 231.701 285.928 231.68 285.672 231.68C285.416 231.68 285.128 231.701 284.808 231.744C284.509 231.765 284.189 231.797 283.848 231.84C283.507 231.883 283.176 231.925 282.856 231.968C282.557 231.989 282.28 232 282.024 232V231.04C282.6 231.04 283.112 230.88 283.56 230.56C284.008 230.24 284.232 229.664 284.232 228.832V223.488C284.232 222.699 284.211 222.048 284.168 221.536C284.147 221.003 284.061 220.597 283.912 220.32C283.763 220.021 283.549 219.819 283.272 219.712C282.995 219.584 282.611 219.52 282.12 219.52V218.72C282.653 218.72 283.112 218.688 283.496 218.624C283.901 218.56 284.264 218.464 284.584 218.336C284.904 218.208 285.192 218.059 285.448 217.888C285.725 217.717 286.013 217.536 286.312 217.344H287.112V220.672C287.624 219.413 288.232 218.496 288.936 217.92C289.661 217.323 290.397 217.024 291.144 217.024C291.613 217.024 292.04 217.099 292.424 217.248C292.808 217.397 293 217.653 293 218.016C293.427 218.016 293.757 218.155 293.992 218.432C294.248 218.709 294.376 219.093 294.376 219.584C294.376 220.139 294.184 220.629 293.8 221.056C293.416 221.461 292.776 221.749 291.88 221.92C291.965 221.6 292.008 221.28 292.008 220.96C292.008 220.192 291.827 219.627 291.464 219.264C291.123 218.901 290.739 218.72 290.312 218.72C289.971 218.72 289.608 218.901 289.224 219.264C288.861 219.605 288.52 220.085 288.2 220.704C287.88 221.323 287.613 222.048 287.4 222.88C287.208 223.691 287.112 224.576 287.112 225.536V228.832ZM303.142 231.008C303.462 231.008 303.782 230.976 304.102 230.912C304.422 230.827 304.72 230.688 304.998 230.496C305.296 230.283 305.563 229.995 305.798 229.632C306.054 229.248 306.278 228.747 306.47 228.128C306.96 228.128 307.366 228.245 307.686 228.48C308.006 228.715 308.166 229.077 308.166 229.568C308.166 230.016 308.016 230.421 307.718 230.784C307.44 231.147 307.056 231.456 306.566 231.712C306.096 231.947 305.542 232.128 304.902 232.256C304.283 232.384 303.632 232.448 302.95 232.448C301.776 232.448 300.742 232.267 299.846 231.904C298.95 231.52 298.203 230.997 297.606 230.336C297.008 229.653 296.55 228.832 296.23 227.872C295.931 226.912 295.782 225.856 295.782 224.704C295.782 222.315 296.411 220.437 297.67 219.072C298.928 217.707 300.72 217.024 303.046 217.024C303.323 217.024 303.6 217.035 303.878 217.056C304.155 217.077 304.411 217.131 304.646 217.216C304.88 217.28 305.072 217.387 305.222 217.536C305.371 217.664 305.446 217.835 305.446 218.048C305.766 218.048 306.086 218.112 306.406 218.24C306.747 218.368 307.056 218.56 307.334 218.816C307.632 219.072 307.867 219.403 308.038 219.808C308.23 220.192 308.326 220.661 308.326 221.216C308.326 222.005 308.134 222.656 307.75 223.168C307.366 223.68 306.875 224.096 306.278 224.416C305.702 224.715 305.062 224.928 304.358 225.056C303.675 225.163 303.024 225.216 302.406 225.216C301.702 225.216 301.04 225.163 300.422 225.056C299.824 224.949 299.312 224.821 298.886 224.672V224.8C298.886 225.696 298.96 226.528 299.11 227.296C299.259 228.064 299.494 228.725 299.814 229.28C300.155 229.813 300.592 230.24 301.126 230.56C301.68 230.859 302.352 231.008 303.142 231.008ZM302.79 218.528C301.638 218.528 300.752 218.944 300.134 219.776C299.515 220.608 299.12 221.76 298.95 223.232C299.312 223.467 299.803 223.627 300.422 223.712C301.062 223.776 301.67 223.808 302.246 223.808C303.398 223.808 304.198 223.627 304.646 223.264C305.115 222.901 305.35 222.272 305.35 221.376C305.35 220.309 305.104 219.573 304.614 219.168C304.123 218.741 303.515 218.528 302.79 218.528ZM323.224 228.832C323.224 229.259 323.288 229.611 323.416 229.888C323.566 230.165 323.736 230.389 323.928 230.56C324.142 230.731 324.376 230.859 324.632 230.944C324.91 231.008 325.176 231.04 325.432 231.04V232C324.942 232 324.515 231.957 324.152 231.872C323.811 231.787 323.395 231.744 322.904 231.744C322.414 231.744 321.987 231.755 321.624 231.776C321.262 231.797 320.835 231.872 320.344 232V230.304C319.854 230.859 319.267 231.36 318.584 231.808C317.902 232.235 317.07 232.448 316.088 232.448C315.299 232.448 314.574 232.341 313.912 232.128C313.272 231.915 312.718 231.605 312.248 231.2C311.8 230.795 311.448 230.315 311.192 229.76C310.936 229.184 310.808 228.544 310.808 227.84C310.808 227.157 310.936 226.549 311.192 226.016C311.47 225.461 311.854 225.003 312.344 224.64C312.835 224.256 313.411 223.968 314.072 223.776C314.734 223.563 315.47 223.456 316.28 223.456C317.198 223.456 317.976 223.552 318.616 223.744C319.278 223.915 319.854 224.117 320.344 224.352V223.168C320.344 222.613 320.302 222.059 320.216 221.504C320.152 220.949 320.014 220.448 319.8 220C319.587 219.552 319.278 219.189 318.872 218.912C318.467 218.635 317.944 218.496 317.304 218.496C317.027 218.496 316.718 218.528 316.376 218.592C316.056 218.656 315.758 218.773 315.48 218.944C315.203 219.093 314.968 219.307 314.776 219.584C314.584 219.84 314.488 220.171 314.488 220.576C314.488 220.789 314.52 221.035 314.584 221.312C314.264 221.483 313.912 221.568 313.528 221.568C312.931 221.568 312.494 221.408 312.216 221.088C311.939 220.747 311.8 220.363 311.8 219.936C311.8 219.509 311.939 219.136 312.216 218.816C312.515 218.475 312.931 218.304 313.464 218.304C313.464 218.069 313.571 217.867 313.784 217.696C313.998 217.525 314.275 217.397 314.616 217.312C314.979 217.205 315.374 217.131 315.8 217.088C316.227 217.045 316.664 217.024 317.112 217.024C318.072 217.024 318.926 217.141 319.672 217.376C320.44 217.589 321.08 217.973 321.592 218.528C322.126 219.061 322.531 219.787 322.808 220.704C323.086 221.6 323.224 222.741 323.224 224.128V228.832ZM316.984 230.976C317.731 230.976 318.382 230.763 318.936 230.336C319.491 229.888 319.96 229.355 320.344 228.736V225.536C319.854 225.301 319.31 225.109 318.712 224.96C318.115 224.789 317.518 224.704 316.92 224.704C316.067 224.704 315.331 224.96 314.712 225.472C314.115 225.984 313.816 226.709 313.816 227.648C313.816 228.629 314.104 229.429 314.68 230.048C315.256 230.667 316.024 230.976 316.984 230.976ZM341.653 228.832C341.653 229.259 341.717 229.611 341.845 229.888C341.994 230.165 342.165 230.389 342.357 230.56C342.57 230.731 342.805 230.859 343.061 230.944C343.338 231.008 343.605 231.04 343.861 231.04V232C343.605 232 343.317 231.989 342.997 231.968C342.698 231.925 342.378 231.883 342.037 231.84C341.695 231.797 341.365 231.765 341.045 231.744C340.746 231.701 340.469 231.68 340.213 231.68C339.957 231.68 339.669 231.701 339.349 231.744C339.05 231.765 338.73 231.797 338.389 231.84C338.047 231.883 337.717 231.925 337.397 231.968C337.098 231.989 336.821 232 336.565 232V231.04C337.141 231.04 337.653 230.88 338.101 230.56C338.549 230.24 338.773 229.664 338.773 228.832V223.872C338.773 222.827 338.698 221.963 338.549 221.28C338.421 220.597 338.229 220.053 337.973 219.648C337.717 219.243 337.407 218.955 337.045 218.784C336.703 218.613 336.33 218.528 335.925 218.528C335.434 218.528 334.954 218.635 334.485 218.848C334.015 219.061 333.589 219.403 333.205 219.872C332.821 220.32 332.511 220.907 332.277 221.632C332.042 222.357 331.925 223.243 331.925 224.288V228.832C331.925 229.259 331.989 229.611 332.117 229.888C332.266 230.165 332.437 230.389 332.629 230.56C332.842 230.731 333.077 230.859 333.333 230.944C333.61 231.008 333.877 231.04 334.133 231.04V232C333.877 232 333.589 231.989 333.269 231.968C332.97 231.925 332.65 231.883 332.309 231.84C331.967 231.797 331.637 231.765 331.317 231.744C331.018 231.701 330.741 231.68 330.485 231.68C330.229 231.68 329.941 231.701 329.621 231.744C329.322 231.765 329.002 231.797 328.661 231.84C328.319 231.883 327.989 231.925 327.669 231.968C327.37 231.989 327.093 232 326.837 232V231.04C327.413 231.04 327.925 230.88 328.373 230.56C328.821 230.24 329.045 229.664 329.045 228.832V223.488C329.045 222.699 329.023 222.048 328.981 221.536C328.959 221.003 328.874 220.597 328.725 220.32C328.575 220.021 328.362 219.819 328.085 219.712C327.807 219.584 327.423 219.52 326.933 219.52V218.72C327.466 218.72 327.925 218.688 328.309 218.624C328.714 218.56 329.077 218.464 329.397 218.336C329.717 218.208 330.005 218.059 330.261 217.888C330.538 217.717 330.826 217.536 331.125 217.344H331.925V219.584C332.159 219.221 332.405 218.891 332.661 218.592C332.917 218.272 333.226 217.995 333.589 217.76C333.973 217.525 334.41 217.344 334.901 217.216C335.413 217.088 336.021 217.024 336.725 217.024C337.685 217.024 338.538 217.195 339.285 217.536C340.031 217.877 340.607 218.56 341.013 219.584C341.183 219.285 341.418 218.987 341.717 218.688C342.015 218.368 342.367 218.091 342.773 217.856C343.178 217.6 343.637 217.397 344.149 217.248C344.661 217.099 345.226 217.024 345.845 217.024C346.677 217.024 347.434 217.173 348.117 217.472C348.799 217.771 349.386 218.251 349.877 218.912C350.367 219.552 350.741 220.405 350.997 221.472C351.274 222.517 351.413 223.797 351.413 225.312V228.48C351.413 229.696 351.455 230.677 351.541 231.424C351.647 232.149 351.775 232.704 351.925 233.088C352.095 233.493 352.287 233.76 352.501 233.888C352.735 234.037 352.97 234.112 353.205 234.112C353.503 234.112 353.77 234.048 354.005 233.92C354.239 233.813 354.442 233.675 354.613 233.504L354.773 233.632C354.538 234.187 354.197 234.592 353.749 234.848C353.322 235.125 352.853 235.264 352.341 235.264C351.722 235.264 351.199 235.093 350.773 234.752C350.367 234.411 350.165 233.952 350.165 233.376C349.418 233.376 348.927 233.003 348.693 232.256C348.479 231.509 348.373 230.411 348.373 228.96V223.936C348.373 222.144 348.159 220.8 347.733 219.904C347.306 218.987 346.581 218.528 345.557 218.528C345.258 218.528 344.885 218.603 344.437 218.752C343.989 218.88 343.551 219.136 343.125 219.52C342.719 219.904 342.367 220.448 342.069 221.152C341.791 221.835 341.653 222.731 341.653 223.84V228.832Z" fill="url(#paint6_linear_4_23)"/>
<defs>
<linearGradient id="paint0_linear_4_23" x1="187.5" y1="0" x2="187.5" y2="187" gradientUnits="userSpaceOnUse">
<stop/>
<stop offset="1" stop-color="#544B1F"/>
</linearGradient>
<linearGradient id="paint1_linear_4_23" x1="187.5" y1="0" x2="187.5" y2="187" gradientUnits="userSpaceOnUse">
<stop/>
<stop offset="1" stop-color="#544B1F"/>
</linearGradient>
<linearGradient id="paint2_linear_4_23" x1="187.5" y1="0" x2="187.5" y2="187" gradientUnits="userSpaceOnUse">
<stop/>
<stop offset="1" stop-color="#544B1F"/>
</linearGradient>
<linearGradient id="paint3_linear_4_23" x1="187.5" y1="0" x2="187.5" y2="187" gradientUnits="userSpaceOnUse">
<stop/>
<stop offset="1" stop-color="#544B1F"/>
</linearGradient>
<linearGradient id="paint4_linear_4_23" x1="187.5" y1="0" x2="187.5" y2="187" gradientUnits="userSpaceOnUse">
<stop/>
<stop offset="1" stop-color="#544B1F"/>
</linearGradient>
<linearGradient id="paint5_linear_4_23" x1="384.5" y1="0" x2="384.5" y2="29" gradientUnits="userSpaceOnUse">
<stop stop-color="#060502"/>
<stop offset="1" stop-color="#544B1F"/>
</linearGradient>
<linearGradient id="paint6_linear_4_23" x1="195.214" y1="200" x2="195.214" y2="231.667" gradientUnits="userSpaceOnUse">
<stop stop-color="#060502"/>
<stop offset="1" stop-color="#544B1F"/>
</linearGradient>
</defs>
</svg>
